<svg xmlns="http://www.w3.org/2000/svg" width="27.741" height="25.321" viewBox="0 0 27.741 25.321"><defs><style>.a{fill:#33c5f3;}</style></defs><path class="a" d="M2075.056,4454.457h-.622l-4.628-7.023a.946.946,0,1,0-1.58,1.041l3.942,5.982h-13.957l3.942-5.982a.946.946,0,0,0-1.58-1.041l-4.628,7.023h-.854a3.887,3.887,0,0,0-2.412,6.936l1.421,10.123a.946.946,0,0,0,.937.814h20.074a.946.946,0,0,0,.937-.814l1.421-10.123a3.887,3.887,0,0,0-2.412-6.936Zm1.039,5.59a.946.946,0,0,0-.443.675l-1.364,9.715H2055.86l-1.364-9.715a.946.946,0,0,0-.443-.676,1.994,1.994,0,0,1,1.039-3.7h19.965a1.995,1.995,0,0,1,1.039,3.7Z" transform="translate(-2051.203 -4447.008)"/><path class="a" d="M2076.573,4489.673a.946.946,0,0,0-.946.946v6.071a.946.946,0,1,0,1.892,0v-6.071A.946.946,0,0,0,2076.573,4489.673Z" transform="translate(-2067.925 -4476.218)"/><path class="a" d="M2093.135,4489.673a.946.946,0,0,0-.946.946v6.071a.946.946,0,1,0,1.892,0v-6.071A.946.946,0,0,0,2093.135,4489.673Z" transform="translate(-2079.264 -4476.218)"/><path class="a" d="M2109.969,4489.673a.946.946,0,0,0-.946.946v6.071a.946.946,0,1,0,1.892,0v-6.071A.946.946,0,0,0,2109.969,4489.673Z" transform="translate(-2090.79 -4476.218)"/></svg>