<svg xmlns="http://www.w3.org/2000/svg" width="155.12" height="136.892" viewBox="0 0 155.12 136.892"><defs><style>.a{opacity:0.15;}.b{fill:#2a314b;}</style></defs><g class="a" transform="translate(-2964.527 1704.903)"><path class="b" d="M3083.664-1562.846h12.623a14.441,14.441,0,0,0,9.619-3.665,14.4,14.4,0,0,0,4.4-7.275l10.174-40.6a2.648,2.648,0,0,0,.3-1.184l3.625-14.466a4.637,4.637,0,0,0-.847-4.006,4.638,4.638,0,0,0-3.679-1.8h-95.225a2.663,2.663,0,0,0-2.086,1.007,2.663,2.663,0,0,0-.51,2.261l3.321,14.3h-19.572l-3.094-12.234h11.142a2.665,2.665,0,0,0,2.665-2.665,2.665,2.665,0,0,0-2.665-2.666h-12.49l-.989-3.912a9.482,9.482,0,0,0-9.2-7.166h-11.008a8.532,8.532,0,0,0-6.2,2.687,8.538,8.538,0,0,0-2.28,6.367,8.574,8.574,0,0,0,8.59,7.944h5.056l20.15,79.683a10.17,10.17,0,0,0,9.868,7.683h3.471a12.366,12.366,0,0,0-.118,1.675,12.145,12.145,0,0,0,2.46,7.34H3001.9a2.665,2.665,0,0,0-2.666,2.665,2.665,2.665,0,0,0,2.666,2.665h118.942a2.665,2.665,0,0,0,2.665-2.665,2.665,2.665,0,0,0-2.665-2.665h-11.551a12.145,12.145,0,0,0,2.46-7.34,12.287,12.287,0,0,0-.118-1.675h2.247a8.574,8.574,0,0,0,8.59-7.944,8.538,8.538,0,0,0-2.281-6.367,8.53,8.53,0,0,0-6.2-2.687h-93.334l-.834-3.3Zm-41.178-5.33-2.668-11.487h18.71v11.487Zm-31.122-28.115h19.119l2.625,11.3h-18.886Zm24.591,0h22.573v11.3H3038.58Zm56.111-16.649-2.657,11.318h-25.551v-11.318Zm-28.208-5.33V-1630.5h32.33l-2.871,12.234Zm47.929,16.648h-16.9l2.656-11.318h17.083Zm-4.167,16.628h-10.779a2.665,2.665,0,0,0-2.665,2.665,2.665,2.665,0,0,0,2.665,2.665h9.443l-1.148,4.581a9.077,9.077,0,0,1-2.778,4.592,9.117,9.117,0,0,1-6.072,2.314h-9.251l6.6-28.115h16.817Zm-26.307,0h-17.455v-11.3h24.3l-2.652,11.3Zm-22.786-16.628h-23.811l-2.629-11.318h26.44Zm5.331,21.959h20.4l-2.7,11.487h-17.7Zm52.1-38.607h-17.167l2.871-12.234h17.362Zm-87.952-12.234h30.52v12.234H3030.85Zm-1.392,17.564,2.628,11.318h-19.228l-2.863-11.318Zm10.962,70.391a6.884,6.884,0,0,1,.207,1.675,6.885,6.885,0,0,1-6.877,6.877,6.885,6.885,0,0,1-6.877-6.877,6.881,6.881,0,0,1,.207-1.675Zm3.077,9.015a12.148,12.148,0,0,0,2.46-7.34,12.366,12.366,0,0,0-.118-1.675h44.459a12.287,12.287,0,0,0-.118,1.675,12.142,12.142,0,0,0,2.461,7.34Zm65.769-7.34a6.885,6.885,0,0,1-6.877,6.877,6.885,6.885,0,0,1-6.877-6.877,6.855,6.855,0,0,1,.207-1.675h13.341A6.879,6.879,0,0,1,3106.424-1540.875Zm7.568-13.344a3.169,3.169,0,0,1,3.162,3.38,3.24,3.24,0,0,1-3.27,2.958h-98.536a4.845,4.845,0,0,1-4.7-3.659l-20.976-82.947a1.006,1.006,0,0,0-.976-.76h-8.422a3.241,3.241,0,0,1-3.27-2.958,3.169,3.169,0,0,1,3.162-3.38h11.008a4.158,4.158,0,0,1,4.035,3.142l21.1,83.452a1.02,1.02,0,0,0,.989.77Zm-98.422-25.445h18.776l2.668,11.487h-18.54Z" transform="translate(-4.9 -39.807)"/><path class="b" d="M3029.281-1285.321h-2.358a2.665,2.665,0,0,0-2.666,2.665,2.665,2.665,0,0,0,2.666,2.665h2.358a2.665,2.665,0,0,0,2.665-2.665A2.665,2.665,0,0,0,3029.281-1285.321Z" transform="translate(-41.002 -288.02)"/><path class="b" d="M2977.812-1285.321h-10.619a2.665,2.665,0,0,0-2.666,2.665,2.665,2.665,0,0,0,2.666,2.665h10.619a2.665,2.665,0,0,0,2.665-2.665A2.665,2.665,0,0,0,2977.812-1285.321Z" transform="translate(0 -288.02)"/><path class="b" d="M3251.358-1688.963a2.665,2.665,0,0,0,2.666-2.665v-10.609a2.665,2.665,0,0,0-2.666-2.665,2.665,2.665,0,0,0-2.665,2.665v10.609A2.665,2.665,0,0,0,3251.358-1688.963Z" transform="translate(-195.065 0)"/><path class="b" d="M3203.708-1663.97a2.657,2.657,0,0,0,1.885.78,2.659,2.659,0,0,0,1.885-.78,2.665,2.665,0,0,0,0-3.769l-7.5-7.5a2.665,2.665,0,0,0-3.77,0,2.665,2.665,0,0,0,0,3.769Z" transform="translate(-158.499 -19.825)"/><path class="b" d="M3281.549-1662.942a2.658,2.658,0,0,0,1.884-.78l7.5-7.5a2.666,2.666,0,0,0,0-3.769,2.666,2.666,0,0,0-3.77,0l-7.5,7.5a2.666,2.666,0,0,0,0,3.77A2.658,2.658,0,0,0,3281.549-1662.942Z" transform="translate(-215.789 -19.996)"/></g></svg>