<svg xmlns="http://www.w3.org/2000/svg" width="110.202" height="27.915" viewBox="0 0 110.202 27.915"><defs><style>.a{fill:#33c5f3;}.b{fill:#626266;}</style></defs><g transform="translate(-424.061 -143.566)"><path class="a" d="M764.709,171.708V149.08h-3.573l-2.749-4.715H769.85v27.344Z" transform="translate(-262.91 -0.628)"/><path class="a" d="M829.637,155.585c0-16.044,23.567-16.006,23.567,0v3.877c0,16.008-23.567,16.045-23.567,0Zm5.027,3.877c0,9.749,13.51,9.749,13.51,0v-3.877a6.771,6.771,0,1,0-13.51,0Z" transform="translate(-318.941)"/><path class="b" d="M556.77,144.728l-10.123,18.04v9.249h-5.191v-9.249l-10.481-18.04H536.9s5.435,9.574,5.829,10.412a1.183,1.183,0,0,0,2.285,0c.364-.753,5.786-10.412,5.786-10.412Z" transform="translate(-84.076 -0.914)"/><path class="b" d="M424.061,151.408c0-5.129,3.813-7.1,10.05-7.1,4,0,6.161.02,9.265.02l2.737,4.717c-1.374-.005-9.072,0-9.357,0a27.776,27.776,0,0,0-5.691.365c-1.1.387-1.836.876-1.836,2.282,0,2.706,4.943,3.481,7.65,4.317,3.656,1.128,9.319,1.808,9.047,8.655-.18,4.525-3.9,7.012-9.914,7.012H424.159v-4.868c1.375,0,7.825,0,9.136,0,3.05,0,7.543.247,7.543-2.517C440.838,158.366,424.061,162.265,424.061,151.408Z" transform="translate(0 -0.583)"/><path class="b" d="M651.734,151.408c0-5.129,3.812-7.1,10.049-7.1,4,0,6.161.02,9.264.02l2.737,4.717c-1.374-.005-9.072,0-9.357,0a27.776,27.776,0,0,0-5.691.365c-1.1.387-1.836.876-1.836,2.282,0,2.706,4.943,3.481,7.65,4.317,3.656,1.128,9.319,1.808,9.047,8.655-.18,4.525-3.9,7.012-9.914,7.012H651.832v-4.868c1.375,0,7.825,0,9.136,0,3.05,0,7.543.247,7.543-2.517C668.511,158.366,651.734,162.265,651.734,151.408Z" transform="translate(-179.04 -0.583)"/></g></svg>